<svg width="16" height="16" viewBox="0 0 16 16" fill="none" xmlns="http://www.w3.org/2000/svg">
<path d="M7.99979 2.98682C7.49611 2.98682 7.00374 3.13618 6.58494 3.41601C6.16614 3.69584 5.83973 4.09357 5.64698 4.55892C5.45423 5.02426 5.4038 5.53631 5.50206 6.03031C5.60032 6.52432 5.84287 6.97809 6.19903 7.33425C6.55519 7.69041 7.00896 7.93295 7.50296 8.03122C7.99697 8.12948 8.50902 8.07905 8.97436 7.8863C9.4397 7.69355 9.83744 7.36713 10.1173 6.94834C10.3971 6.52954 10.5465 6.03717 10.5465 5.53348C10.5465 4.85807 10.2782 4.21031 9.80056 3.73272C9.32297 3.25513 8.67521 2.98682 7.99979 2.98682ZM7.99979 7.19126C7.67192 7.19126 7.3514 7.09403 7.07878 6.91188C6.80616 6.72972 6.59368 6.47081 6.46821 6.16789C6.34273 5.86497 6.3099 5.53164 6.37387 5.21007C6.43783 4.88849 6.59572 4.5931 6.82757 4.36126C7.05941 4.12941 7.3548 3.97152 7.67638 3.90756C7.99795 3.84359 8.33128 3.87642 8.6342 4.0019C8.93712 4.12737 9.19603 4.33985 9.37818 4.61247C9.56034 4.88509 9.65757 5.20561 9.65757 5.53348C9.65639 5.97238 9.48122 6.3929 9.17045 6.70284C8.85968 7.01277 8.43869 7.18682 7.99979 7.18682V7.19126Z" fill="#949494"/>
<path d="M8.0002 0.888672C6.61585 0.889828 5.2882 1.43875 4.30723 2.41556C3.32626 3.39236 2.77169 4.71767 2.76465 6.10201C2.76465 8.17756 3.92909 9.91534 4.78243 11.182L4.93798 11.4131C5.78699 12.6436 6.69779 13.8303 7.66687 14.9687L8.00465 15.3642L8.34243 14.9687C9.31138 13.8302 10.2222 12.6435 11.0713 11.4131L11.2269 11.1776C12.0758 9.91089 13.2402 8.17756 13.2402 6.10201C13.2332 4.7169 12.678 3.39092 11.696 2.41399C10.7141 1.43706 9.38533 0.888654 8.0002 0.888672ZM10.4846 10.6664L10.3246 10.902C9.5602 12.0487 8.54687 13.3331 8.0002 13.9687C7.47576 13.3331 6.4402 12.0487 5.67576 10.902L5.5202 10.6664C4.73354 9.49312 3.65354 7.88867 3.65354 6.08423C3.65354 5.51341 3.76597 4.94819 3.98441 4.42083C4.20285 3.89347 4.52302 3.4143 4.92665 3.01067C5.33027 2.60704 5.80944 2.28687 6.33681 2.06843C6.86417 1.84999 7.42939 1.73756 8.0002 1.73756C8.57102 1.73756 9.13624 1.84999 9.6636 2.06843C10.191 2.28687 10.6701 2.60704 11.0738 3.01067C11.4774 3.4143 11.7976 3.89347 12.016 4.42083C12.2344 4.94819 12.3469 5.51341 12.3469 6.08423C12.3469 7.90645 11.2713 9.51089 10.4846 10.6664Z" fill="#949494"/>
</svg>
